<svg width="79" height="28" viewBox="0 0 79 28" fill="none" xmlns="http://www.w3.org/2000/svg">
<path fill-rule="evenodd" clip-rule="evenodd" d="M71.879 11.1468L76.3008 13.6985C77.5483 14.4189 78.3228 15.7592 78.3228 17.1987V21.239C78.3228 22.6785 77.5483 24.0188 76.3008 24.7392L72.7992 26.76C72.1755 27.1196 71.4769 27.3 70.7772 27.3C70.0774 27.3 69.3789 27.1196 68.7551 26.76L64.3463 24.216L64.3334 24.2237L64.3205 24.216L59.9117 26.76C59.2879 27.1196 58.5894 27.3 57.8896 27.3C57.1898 27.3 56.4913 27.1196 55.8675 26.76L52.366 24.7405C51.1185 24.0201 50.3439 22.6798 50.3439 21.2403V17.2C50.3439 15.7605 51.1185 14.4189 52.366 13.6998L56.7877 11.148V6.06133C56.7877 4.62179 57.5623 3.2802 58.8098 2.56108L62.3113 0.54031C63.5575 -0.180103 65.1079 -0.180103 66.3554 0.54031L69.857 2.55979C71.1045 3.2802 71.879 4.62051 71.879 6.06004V11.1468ZM59.9117 4.46714C59.3446 4.79449 58.9915 5.40536 58.9915 6.06004V9.89151L62.0136 8.14783C63.4441 7.32173 65.2226 7.32173 66.6531 8.14783L69.6753 9.89151V6.06004C69.6753 5.40536 69.3234 4.79449 68.7551 4.46714L65.2535 2.44767C64.6865 2.12032 63.9815 2.12032 63.4132 2.44767L59.9117 4.46714ZM56.9694 24.8527C57.5365 25.18 58.2427 25.18 58.8098 24.8527L62.118 22.944L59.1075 21.2093C57.677 20.3833 56.7877 18.8445 56.7877 17.1936V13.692L53.4679 15.6071C52.9008 15.9345 52.5477 16.5453 52.5477 17.2V21.2403C52.5477 21.895 52.9008 22.5058 53.4679 22.8332L56.9694 24.8527ZM60.2094 19.3007L64.3334 21.6797L68.4587 19.2994C69.21 18.8664 69.6766 18.0583 69.6766 17.191V12.4329L65.5525 10.0539C64.8012 9.62087 63.8668 9.61958 63.1155 10.0539L58.9915 12.4329V17.1923C58.9915 18.0596 59.458 18.8664 60.2094 19.3007ZM75.1989 22.8319C75.7659 22.5045 76.119 21.8937 76.119 21.239V17.1987C76.119 16.5441 75.7659 15.9332 75.1989 15.6058L71.879 13.6908V17.1923C71.879 18.8432 70.9898 20.382 69.5593 21.2081L66.55 22.944L69.857 24.8514C70.424 25.1787 71.1303 25.1787 71.6973 24.8514L75.1989 22.8319ZM38.16 8.39397H39.0905V13.2977H38.16V8.39397ZM12.9597 22.8113C13.5255 22.8113 13.8477 22.3447 13.8477 21.8009H13.849V18.0751H14.7794V21.8524C14.7794 22.7945 14.0165 23.6206 12.9597 23.6206V22.8113ZM3.05435 8.92881C3.05435 9.22522 2.81464 9.46493 2.51823 9.46493C2.22955 9.46493 1.98211 9.22522 1.98211 8.92881C1.98211 8.63239 2.22955 8.39268 2.51823 8.39268C2.81464 8.39268 3.05435 8.63239 3.05435 8.92881ZM11.4184 18.03C11.5653 18.0815 11.7238 18.173 11.8926 18.3032V18.0777H12.8244V21.6978H11.8926V21.4684C11.7225 21.5934 11.5653 21.6836 11.4184 21.7377C11.2715 21.7919 11.1052 21.8189 10.9196 21.8189C10.3526 21.8189 9.88218 21.6063 9.50586 21.181C9.17852 20.815 9.01484 20.382 9.01484 19.8806C9.01484 19.3033 9.22104 18.8239 9.63602 18.4424C10.0007 18.1163 10.4286 17.9527 10.9196 17.9527C11.1052 17.9527 11.2715 17.9784 11.4184 18.03ZM10.9364 20.9671C11.2418 20.9671 11.4867 20.8536 11.6723 20.6242C11.8295 20.4284 11.9094 20.1809 11.9094 19.8793C11.9094 19.5365 11.8076 19.2646 11.6065 19.0623C11.4261 18.8831 11.2031 18.7929 10.9364 18.7929C10.6258 18.7929 10.3783 18.9063 10.1928 19.1357C10.0342 19.3316 9.95563 19.5804 9.95563 19.8793C9.95563 20.2234 10.0587 20.498 10.2662 20.7054C10.4467 20.8794 10.6696 20.9671 10.9364 20.9671ZM18.8867 12.0076C18.8867 12.7822 18.4923 13.2977 17.674 13.2977H16.112C15.7318 13.2977 15.5011 13.1469 15.3633 12.9768C15.0759 13.1778 14.7124 13.2977 14.282 13.2977H10.6026H9.67211V8.39397H10.6026V12.4999H12.7574C12.5795 12.2138 12.4842 11.8697 12.4842 11.505C12.4842 10.5385 13.1621 9.7201 14.2833 9.7201C15.4122 9.7201 16.0888 10.5385 16.0888 11.505C16.0888 11.8697 15.9935 12.2138 15.8143 12.4999H17.54C17.8003 12.4999 17.991 12.3388 17.991 11.9574V8.39397H18.8867V12.0076ZM13.4159 11.505C13.4159 12.0411 13.7265 12.4999 14.2833 12.4999C14.84 12.4999 15.1583 12.0411 15.1583 11.505C15.1583 10.9766 14.84 10.5178 14.2833 10.5178C13.7265 10.5178 13.4159 10.9766 13.4159 11.505ZM2.40353 18.03C2.55045 18.0815 2.70896 18.173 2.87779 18.3032V18.0777H3.80956V21.6978H2.87779V21.4684C2.70767 21.5934 2.55045 21.6836 2.40353 21.7377C2.25661 21.7919 2.09036 21.8189 1.90478 21.8189C1.33773 21.8189 0.867332 21.6063 0.491016 21.181C0.163672 20.815 0 20.382 0 19.8806C0 19.3033 0.20749 18.8239 0.62118 18.4424C0.985898 18.1163 1.41376 17.9527 1.90478 17.9527C2.09036 17.9527 2.25661 17.9784 2.40353 18.03ZM1.92025 20.9671C2.22568 20.9671 2.47054 20.8536 2.65612 20.6242C2.81464 20.4284 2.89326 20.1809 2.89326 19.8793C2.89326 19.5365 2.79144 19.2646 2.5904 19.0623C2.40997 18.8831 2.18702 18.7929 1.92025 18.7929C1.60966 18.7929 1.36221 18.9063 1.17663 19.1357C1.01812 19.3316 0.939503 19.5804 0.939503 19.8793C0.939503 20.2234 1.0426 20.498 1.25009 20.7054C1.43052 20.8794 1.65347 20.9671 1.92025 20.9671ZM13.9031 16.4358C14.0178 16.3237 14.1531 16.2683 14.3116 16.2683C14.4753 16.2683 14.6145 16.3237 14.7292 16.4358C14.8426 16.5466 14.9006 16.6819 14.9006 16.8405C14.9006 17.0041 14.8439 17.1407 14.7292 17.2529C14.6145 17.3637 14.4753 17.4204 14.3116 17.4204C14.1531 17.4204 14.0178 17.365 13.9031 17.2529C13.7884 17.1407 13.7317 17.0041 13.7317 16.8405C13.7317 16.6819 13.7884 16.5479 13.9031 16.4358ZM6.58296 21.7055V19.5121C6.58296 18.579 7.08944 18.0029 8.14236 18.0029L8.69523 18.0094V18.8303H8.172C7.76991 18.8303 7.51344 18.9837 7.51344 19.4747V21.7055H6.58296ZM17.5077 17.9514C17.7204 17.9514 17.9266 17.9939 18.1251 18.0777C18.3235 18.1627 18.4936 18.2813 18.6354 18.4334C18.897 18.7169 19.0272 19.1551 19.0272 19.7492V21.6952H18.0954V19.8072C18.0954 19.3986 18.0361 19.1267 17.9163 18.9901C17.8016 18.8587 17.6418 18.7942 17.4343 18.7942C17.1675 18.7942 16.9678 18.878 16.8376 19.0468C16.7229 19.1886 16.6662 19.4669 16.6662 19.8806V21.6952H15.7344V16.2425H16.6662V18.262C16.8079 18.1486 16.942 18.0674 17.067 18.021C17.192 17.9746 17.3389 17.9514 17.5077 17.9514ZM4.67432 14.6264C4.67432 14.33 4.92176 14.0903 5.21044 14.0903C5.50685 14.0903 5.74656 14.33 5.74656 14.6264C5.74656 14.9228 5.50685 15.1625 5.21044 15.1625C4.92176 15.1625 4.67432 14.9228 4.67432 14.6264ZM5.69759 21.6952H4.76582V16.2438H5.69759V21.6952ZM1.51687 8.93009C1.51687 9.22651 1.27716 9.46622 0.980743 9.46622C0.692062 9.46622 0.444621 9.22522 0.444621 8.93009C0.444621 8.63368 0.692062 8.39397 0.980743 8.39397C1.27716 8.39397 1.51687 8.63368 1.51687 8.93009ZM8.59471 8.39397V12.0064C8.59471 12.7822 8.20035 13.2977 7.38199 13.2977H6.34841C5.84708 13.2977 5.56742 13.0657 5.41019 12.8067C5.09832 13.1082 4.65627 13.2977 4.11757 13.2977H2.59555H2.12258H1.63028C0.729435 13.2977 0 12.5682 0 11.6674C0 10.7666 0.729435 10.0358 1.63028 10.0358H3.05435V12.4987H4.12402C4.67818 12.4948 4.99264 12.0386 4.99264 11.505V10.1183H5.92312L5.92054 11.5759V11.5785C5.92049 11.5885 5.92043 11.5985 5.92037 11.6085C5.91763 12.0631 5.915 12.4999 6.36645 12.4999H7.24796C7.50829 12.4999 7.69902 12.3388 7.69902 11.9574V8.39397H8.59471ZM1.61223 12.4999H2.12129V10.8336H1.62899C1.22303 10.8336 0.894396 11.2073 0.894396 11.6674C0.894396 12.121 1.21401 12.4896 1.61223 12.4999ZM3.13683 14.6264C3.13683 14.33 3.38427 14.0903 3.67295 14.0903C3.96937 14.0903 4.20907 14.33 4.20907 14.6264C4.20907 14.9228 3.96937 15.1625 3.67295 15.1625C3.38298 15.1625 3.13683 14.9228 3.13683 14.6264ZM42.1475 18.0313C42.2944 18.0828 42.4516 18.1743 42.6204 18.3045H42.6217V18.0764H43.5522V21.6926H42.6217V21.4645C42.4529 21.5895 42.2957 21.6797 42.1487 21.7339C42.0018 21.788 41.8369 21.8151 41.6513 21.8151C41.0855 21.8151 40.6138 21.6024 40.2388 21.1784C39.9128 20.8137 39.7491 20.382 39.7491 19.8806C39.7491 19.3033 39.9553 18.8251 40.369 18.4437C40.7324 18.1176 41.1603 17.954 41.65 17.954C41.8343 17.954 42.0005 17.9797 42.1475 18.0313ZM41.6655 20.9658C41.9696 20.9658 42.2145 20.8511 42.4 20.623C42.5586 20.4271 42.6372 20.1796 42.6359 19.8793C42.6359 19.5365 42.5354 19.2646 42.3343 19.0636C42.1552 18.8844 41.9322 18.7942 41.6655 18.7942C41.3562 18.7942 41.1074 18.9089 40.9231 19.137C40.7646 19.3329 40.686 19.5804 40.686 19.8793C40.686 20.2222 40.7904 20.4979 40.9966 20.7042C41.1757 20.8794 41.3987 20.9658 41.6655 20.9658ZM36.4692 11.505V12.1842C36.4692 12.3582 36.611 12.4999 36.7837 12.5025H37.0092V13.299H27.6876V10.5191H27.2469C26.6901 10.5191 26.3795 10.9779 26.3795 11.5063V13.2977H23.9464C23.3858 13.2977 22.936 13.0928 22.6267 12.7667C22.3161 12.4407 22.1473 11.9935 22.1473 11.5063C22.1473 11.0243 22.3174 10.5771 22.6267 10.2524L23.3033 10.8143C23.1564 10.9947 23.079 11.2421 23.079 11.5063C23.079 11.7744 23.1564 12.0231 23.3033 12.2048C23.4502 12.3865 23.668 12.5012 23.9464 12.5012H25.449V11.5063C25.449 10.5397 26.1269 9.72139 27.2482 9.72139H28.6194V12.4974H31.8645C31.8181 12.3698 31.791 12.2319 31.791 12.0875V11.5037C31.791 11.2395 31.7124 10.9921 31.5629 10.8117C31.4147 10.6313 31.1956 10.5166 30.9172 10.5166C30.6376 10.5166 30.4211 10.6313 30.2741 10.8117L29.5976 10.2498C29.9069 9.92501 30.3566 9.7201 30.9172 9.7201C31.4817 9.7201 31.9328 9.92501 32.2434 10.2498C32.554 10.5745 32.7228 11.0205 32.7228 11.5037V12.1829C32.7228 12.3569 32.8645 12.4987 33.0385 12.4987H35.6122C35.5658 12.3711 35.5387 12.2332 35.5387 12.0888V11.505C35.5387 11.2408 35.4601 10.9934 35.3106 10.813C35.1611 10.6325 34.942 10.5178 34.6637 10.5178C34.3853 10.5178 34.1675 10.6325 34.0206 10.813L33.344 10.2511C33.6533 9.9263 34.103 9.72139 34.6637 9.72139C35.2281 9.72139 35.6792 9.9263 35.9898 10.2511C36.3004 10.5758 36.4692 11.0217 36.4692 11.505ZM38.6124 20.525C38.6124 20.6603 38.6266 20.7531 38.6536 20.8021C38.6807 20.8511 38.7271 20.8756 38.7915 20.8768C38.8843 20.8768 39.0287 20.8472 39.2246 20.7866V21.6681C39.0235 21.7287 38.8431 21.7584 38.6859 21.7584C38.343 21.7584 38.084 21.6385 37.91 21.3988C37.7579 21.1861 37.6819 20.8949 37.6819 20.525V18.9089H37.3069V18.0764H37.6819V17.3006H38.6124V18.0764H39.1679V18.9089H38.6124V20.525ZM35.7307 16.4397C35.8454 16.3275 35.9808 16.2721 36.1393 16.2721C36.3029 16.2721 36.4408 16.3275 36.5555 16.4397C36.6702 16.5518 36.7269 16.6871 36.7269 16.8443C36.7269 17.008 36.6702 17.1459 36.5555 17.2567C36.4408 17.3689 36.3029 17.4243 36.1393 17.4243C35.9808 17.4243 35.8454 17.3689 35.7307 17.2567C35.616 17.1446 35.5593 17.008 35.5593 16.8443C35.5593 16.6858 35.616 16.5518 35.7307 16.4397ZM36.6045 21.6926H35.674V18.0764H36.6045V21.6926ZM19.7321 8.39397H20.6626V13.2977H19.7321V8.39397ZM45.3552 21.6926H44.4247V16.2476H45.3552V21.6926ZM42.2338 12.4999C42.4941 12.4999 42.6849 12.3388 42.6849 11.9574V8.39397H43.5805V12.0064C43.5805 12.7809 43.1862 13.2964 42.3678 13.2964H41.6139C41.4399 13.2964 41.3239 13.2229 41.244 13.116C41.2118 14.058 40.5417 14.8377 39.4411 14.8377V14.0413C39.9991 14.0413 40.3161 13.5825 40.3161 13.0464V10.0487H41.2466V12.2306C41.2466 12.3801 41.2943 12.4999 41.4477 12.4999H42.2338ZM45.3552 13.2977H44.4247V8.39397H45.3552V13.2977ZM24.7119 20.9658C24.891 20.9658 25.0495 20.9258 25.1887 20.8472C25.3279 20.7686 25.4813 20.6307 25.6501 20.4335L26.27 21.0289C26.0148 21.3073 25.7674 21.507 25.5277 21.6295C25.288 21.7519 25.0134 21.8138 24.7029 21.8138C24.1152 21.8138 23.6332 21.6037 23.2582 21.1849C22.9321 20.8214 22.7684 20.3858 22.7684 19.8793C22.7684 19.2968 22.9785 18.8174 23.3974 18.4424C23.7621 18.1163 24.1977 17.9527 24.7041 17.9527C25.0031 17.9527 25.2712 18.0107 25.5083 18.1279C25.7455 18.2452 25.9916 18.4372 26.2468 18.704L25.6269 19.3084C25.4194 19.0958 25.2596 18.9579 25.1449 18.8922C25.0302 18.8264 24.8833 18.7942 24.7041 18.7942C24.3832 18.7942 24.1294 18.9089 23.9451 19.137C23.7866 19.3329 23.7079 19.5804 23.7079 19.8793C23.7079 20.2286 23.811 20.5031 24.0185 20.7042C24.1977 20.8794 24.4284 20.9658 24.7119 20.9658ZM24.4619 14.6264C24.4619 14.9228 24.2222 15.1625 23.9257 15.1625C23.6371 15.1625 23.3909 14.9228 23.3896 14.6264C23.3896 14.33 23.6371 14.0903 23.9257 14.0903C24.2222 14.0903 24.4619 14.33 24.4619 14.6264ZM20.0337 16.4358C20.1484 16.3237 20.2837 16.2683 20.4422 16.2683C20.6059 16.2683 20.7451 16.3237 20.8598 16.4358C20.9745 16.5466 21.0312 16.6819 21.0312 16.8405C21.0312 17.0041 20.9745 17.1407 20.8598 17.2529C20.7451 17.3637 20.6059 17.4204 20.4422 17.4204C20.2837 17.4204 20.1484 17.365 20.0337 17.2529C19.919 17.1407 19.8623 17.0041 19.8623 16.8405C19.8623 16.6819 19.919 16.5479 20.0337 16.4358ZM34.3402 14.6264C34.3402 14.33 34.5876 14.0903 34.8763 14.0903C35.1727 14.0903 35.4124 14.33 35.4124 14.6264C35.4124 14.9228 35.1727 15.1625 34.8763 15.1625C34.5863 15.1625 34.3402 14.9228 34.3402 14.6264ZM20.9075 21.6952H19.9757V18.0751H20.9075V21.6952ZM32.6377 18.0313C32.7846 17.9797 32.9496 17.954 33.1352 17.954C33.7009 17.954 34.1726 18.1653 34.5464 18.5919C34.8724 18.9566 35.0361 19.3896 35.0361 19.8897C35.0361 20.4606 34.8299 20.9361 34.4162 21.3176C34.0528 21.6488 33.6249 21.8151 33.1352 21.8151C32.9509 21.8151 32.7846 21.788 32.6377 21.7339C32.4908 21.6797 32.3336 21.5895 32.1648 21.4645V23.5948H31.2343V18.0764H32.1648V18.3045C32.3323 18.1743 32.4908 18.0828 32.6377 18.0313ZM33.1197 20.9658C33.429 20.9658 33.6765 20.8536 33.862 20.6307C34.0193 20.4296 34.0992 20.1822 34.1005 19.8884C34.1005 19.5456 33.9961 19.2711 33.7899 19.0636C33.6107 18.8844 33.3878 18.7942 33.121 18.7942C32.8156 18.7942 32.5733 18.9089 32.3942 19.137C32.2356 19.3394 32.157 19.5894 32.157 19.8884C32.157 20.2312 32.2575 20.5031 32.4586 20.7042C32.6326 20.8794 32.8529 20.9658 33.1197 20.9658ZM25.4632 14.0903C25.7596 14.0903 25.9993 14.33 25.9993 14.6264C25.9993 14.9228 25.7596 15.1625 25.4632 15.1625C25.1745 15.1625 24.9271 14.9228 24.9271 14.6264C24.9271 14.33 25.1745 14.0903 25.4632 14.0903ZM28.9648 18.0313C29.1117 18.0828 29.2689 18.1743 29.4377 18.3045H29.439V18.0764H30.3695V21.6926H29.439V21.4645C29.2702 21.5895 29.113 21.6797 28.9661 21.7339C28.8191 21.788 28.6542 21.8151 28.4686 21.8151C27.9028 21.8151 27.4312 21.6024 27.0561 21.1784C26.7301 20.8137 26.5664 20.382 26.5664 19.8806C26.5664 19.3033 26.7726 18.8251 27.1863 18.4437C27.5497 18.1176 27.9776 17.954 28.4673 17.954C28.6516 17.954 28.8179 17.9797 28.9648 18.0313ZM28.4828 20.9658C28.7869 20.9658 29.0318 20.8511 29.2174 20.623C29.3746 20.4271 29.4545 20.1796 29.4532 19.8793C29.4532 19.5365 29.3527 19.2646 29.1516 19.0636C28.9725 18.8844 28.7496 18.7942 28.4828 18.7942C28.1735 18.7942 27.9247 18.9089 27.7405 19.137C27.5819 19.3329 27.5033 19.5804 27.5033 19.8793C27.5033 20.2222 27.6064 20.4979 27.8139 20.7042C27.9931 20.8794 28.216 20.9658 28.4828 20.9658Z" fill="#155EEF"/>
</svg>
